<svg width="277" height="77" viewBox="0 0 277 77" fill="none" xmlns="http://www.w3.org/2000/svg">
<g clip-path="url(#clip0_2007_2)">
<path d="M192.4 48.2C193.8 47.4 194.9 46.6 195.7 45.6L199.2 49C198.6 49.7 198 50.3 197.2 50.9C196.4 51.5 195.5 52.1 194.5 52.6C193.5 53.1 192.4 53.5 191.2 53.8C190 54.1 188.7 54.2 187.4 54.2C185.2 54.2 183.1 53.8 181.3 53C179.4 52.2 177.8 51.1 176.4 49.7C175 48.3 173.9 46.6 173.1 44.7C172.3 42.8 171.9 40.7 171.9 38.4C171.9 36.1 172.3 34 173.1 32.1C173.9 30.2 175 28.5 176.4 27.1C177.8 25.7 179.4 24.6 181.3 23.8C183.2 23 185.2 22.6 187.4 22.6C188.8 22.6 190 22.7 191.2 23C192.4 23.3 193.4 23.7 194.4 24.1C195.4 24.6 196.2 25.1 196.9 25.6C197.6 26.2 198.2 26.7 198.7 27.3L195.2 30.7C194.5 29.9 193.4 29.1 192.1 28.4C190.8 27.7 189.2 27.3 187.4 27.3C185.9 27.3 184.5 27.6 183.3 28.2C182 28.8 181 29.6 180.1 30.6C179.2 31.6 178.5 32.8 178 34.1C177.5 35.4 177.3 36.8 177.3 38.3C177.3 39.8 177.5 41.2 178 42.5C178.5 43.8 179.2 45 180.1 46C181 47 182.1 47.8 183.3 48.4C184.6 49 185.9 49.3 187.4 49.3C189.3 49.4 191 49 192.4 48.2Z" fill="#282828"/>
<path d="M261.1 44C260.8 43.6 260.4 43.2 259.9 42.8C259.4 42.5 258.8 42.1 258.1 41.9C257.4 41.6 256.7 41.3 255.9 41C254.8 40.6 253.7 40.1 252.5 39.6C251.4 39.1 250.3 38.4 249.4 37.7C248.5 37 247.7 36.1 247.2 35.1C246.6 34.1 246.3 32.9 246.3 31.6C246.3 30.4 246.5 29.3 247 28.2C247.5 27.1 248.1 26.2 249 25.4C249.9 24.6 250.9 23.9 252.1 23.4C253.3 22.9 254.7 22.7 256.2 22.7C257.4 22.7 258.5 22.8 259.5 23.1C260.5 23.4 261.4 23.8 262.3 24.2C263.1 24.7 263.9 25.2 264.5 25.8C265.2 26.4 265.7 26.9 266.2 27.5L262.6 31.1C262.2 30.7 261.9 30.2 261.4 29.8C261 29.4 260.5 29 259.9 28.7C259.3 28.4 258.8 28.1 258.2 27.9C257.6 27.7 256.9 27.6 256.2 27.6C254.9 27.6 253.8 27.9 252.9 28.6C252 29.3 251.6 30.2 251.6 31.3C251.6 32 251.8 32.6 252.2 33.1C252.6 33.6 253.1 34 253.7 34.4C254.3 34.8 255 35.1 255.8 35.4L258.2 36.3C259.3 36.7 260.4 37.2 261.4 37.7C262.4 38.2 263.3 38.8 264.1 39.5C264.9 40.2 265.5 41 266 42C266.5 43 266.7 44.1 266.7 45.4C266.7 46.9 266.4 48.1 265.8 49.2C265.2 50.3 264.5 51.2 263.5 51.9C262.5 52.6 261.4 53.2 260.2 53.5C258.9 53.9 257.6 54 256.2 54C254.7 54 253.4 53.8 252.3 53.5C251.1 53.1 250.1 52.7 249.1 52.1C248.2 51.5 247.3 50.8 246.6 50.1C245.9 49.3 245.3 48.6 244.8 47.8L248.7 44.5C249 45.1 249.5 45.6 249.9 46.1C250.4 46.6 250.9 47.1 251.5 47.6C252.1 48 252.8 48.4 253.6 48.7C254.4 49 255.2 49.1 256.1 49.1C256.7 49.1 257.3 49 257.9 48.9C258.5 48.8 259 48.6 259.5 48.3C260 48 260.4 47.6 260.7 47.1C261 46.6 261.2 46 261.2 45.4C261.5 44.9 261.4 44.4 261.1 44Z" fill="#282828"/>
<path d="M234.5 23.2V42.7C234.5 44.4 234.2 45.9 233.7 47.3C233.1 48.7 232.4 49.9 231.3 51C230.3 52 229 52.8 227.6 53.4C226.1 54 224.5 54.3 222.7 54.3C220.9 54.3 219.3 54 217.8 53.4C216.3 52.8 215.1 52 214.1 51C213.1 50 212.3 48.7 211.7 47.3C211.1 45.9 210.9 44.3 210.9 42.7V23.2H216.1V42C216.1 44.2 216.6 45.9 217.7 47.3C218.8 48.6 220.4 49.3 222.6 49.3C224.8 49.3 226.4 48.6 227.5 47.3C228.6 46 229.1 44.2 229.1 42V23.2H234.5Z" fill="#282828"/>
<path d="M78.9 22.2L64.3 53.7H69.7L78.9 33.6L88 53.7H93.4L78.9 22.2Z" fill="#282828"/>
<path d="M149.5 22.2L135 53.7H140.3L149.5 33.6L158.7 53.7H164L149.5 22.2Z" fill="#282828"/>
<path d="M125 41.3C124.5 40.4 124 39.7 123.5 39.1C122.9 38.5 122.4 38.2 121.9 37.9C121.4 37.7 121.1 37.5 121 37.5C121.2 37.4 121.4 37.2 121.8 37C122.1 36.8 122.5 36.4 122.9 35.9C123.3 35.4 123.6 34.8 123.8 34.1C124.1 33.4 124.2 32.5 124.2 31.4C124.2 29.9 123.9 28.7 123.4 27.6C122.8 26.6 122.1 25.7 121.2 25C120.3 24.3 119.3 23.8 118.1 23.5C116.9 23.2 115.7 23 114.5 23H104.6V53.5H115.6C117 53.5 118.4 53.3 119.6 52.8C120.9 52.4 121.9 51.8 122.8 51C123.7 50.2 124.4 49.3 125 48.1C125.5 47 125.8 45.7 125.8 44.4C125.7 43.3 125.5 42.2 125 41.3ZM119.2 48.4C118.2 49.1 116.9 49.4 115.4 49.4H109.5V27.5H114.3C115.7 27.5 116.8 27.8 117.8 28.4C118.7 29 119.3 30.2 119.3 31.6C119.3 33.3 118.8 34.2 117.9 34.8C117.1 35.4 116 35.7 114.5 35.7L115.5 40.4C117 40.4 118.3 40.8 119.4 41.5C120.4 42.2 120.8 43.2 120.8 44.8C120.7 46.4 120.2 47.8 119.2 48.4Z" fill="#282828"/>
<path d="M22.8 27.2C22.1 26.5 20.9 26.5 20.2 27.2C19.5 27.9 19.5 29.1 20.2 29.8C20.9 30.5 22.1 30.5 22.8 29.8C23.5 29.1 23.5 27.9 22.8 27.2Z" fill="#DE323C"/>
<path d="M27.7 32.1C27 31.4 25.8 31.4 25.1 32.1C24.4 32.8 24.4 34 25.1 34.7C25.8 35.4 27 35.4 27.7 34.7C28.5 34 28.5 32.8 27.7 32.1Z" fill="#DE323C"/>
<path d="M28 21.9C27.1 21 25.7 21 24.8 21.9C23.9 22.8 23.9 24.2 24.8 25.1C25.7 26 27.1 26 28 25.1C28.8 24.2 28.8 22.8 28 21.9Z" fill="#DE323C"/>
<path d="M33 26.9C32.1 26 30.7 26 29.8 26.9C28.9 27.8 28.9 29.2 29.8 30.1C30.7 31 32.1 31 33 30.1C33.8 29.2 33.8 27.7 33 26.9Z" fill="#DE323C"/>
<path d="M37.9 31.8C37 30.9 35.6 30.9 34.7 31.8C33.8 32.7 33.8 34.1 34.7 35C35.6 35.9 37 35.9 37.9 35C38.8 34.1 38.8 32.7 37.9 31.8Z" fill="#DE323C"/>
<path d="M44.3 41.4C43.3 42.4 43.3 44.1 44.3 45.1C45.3 46.1 47 46.1 48 45.1C49 44.1 49 42.4 48 41.4C47 40.4 45.4 40.4 44.3 41.4Z" fill="#DE323C"/>
<path d="M39.4 46.4C38.4 47.4 38.4 49.1 39.4 50.1C40.4 51.1 42.1 51.1 43.1 50.1C44.1 49.1 44.1 47.4 43.1 46.4C42.1 45.3 40.4 45.3 39.4 46.4Z" fill="#DE323C"/>
<path d="M34.4 51.3C33.4 52.3 33.4 54 34.4 55C35.4 56 37.1 56 38.1 55C39.1 54 39.1 52.3 38.1 51.3C37.1 50.3 35.5 50.3 34.4 51.3Z" fill="#DE323C"/>
<path d="M29.5 56.3C28.5 57.3 28.5 59 29.5 60C30.5 61 32.2 61 33.2 60C34.2 59 34.2 57.3 33.2 56.3C32.2 55.2 30.5 55.2 29.5 56.3Z" fill="#DE323C"/>
<path d="M53 36.6C52 35.6 50.3 35.6 49.3 36.6C48.3 37.6 48.3 39.3 49.3 40.3C50.3 41.3 52 41.3 53 40.3C54 39.3 54 37.6 53 36.6Z" fill="#DE323C"/>
<path d="M48 31.7C47 30.7 45.3 30.7 44.3 31.7C43.3 32.7 43.3 34.4 44.3 35.4C45.3 36.4 47 36.4 48 35.4C49.1 34.4 49.1 32.7 48 31.7Z" fill="#DE323C"/>
<path d="M43.1 26.7C42.1 25.7 40.4 25.7 39.4 26.7C38.4 27.7 38.4 29.4 39.4 30.4C40.4 31.4 42.1 31.4 43.1 30.4C44.1 29.4 44.1 27.8 43.1 26.7Z" fill="#DE323C"/>
<path d="M38.1 21.8C37.1 20.8 35.4 20.8 34.4 21.8C33.4 22.8 33.4 24.5 34.4 25.5C35.4 26.5 37.1 26.5 38.1 25.5C39.2 24.5 39.2 22.8 38.1 21.8Z" fill="#DE323C"/>
<path d="M33.2 16.8C32.2 15.8 30.5 15.8 29.5 16.8C28.5 17.8 28.5 19.5 29.5 20.5C30.5 21.5 32.2 21.5 33.2 20.5C34.2 19.5 34.2 17.9 33.2 16.8Z" fill="#DE323C"/>
<path d="M24.8 51.6C23.9 52.5 23.9 53.9 24.8 54.8C25.7 55.7 27.1 55.7 28 54.8C28.9 53.9 28.9 52.5 28 51.6C27.1 50.8 25.7 50.8 24.8 51.6Z" fill="#DE323C"/>
<path d="M20.2 46.9C19.5 47.6 19.5 48.8 20.2 49.5C20.9 50.2 22.1 50.2 22.8 49.5C23.5 48.8 23.5 47.6 22.8 46.9C22.1 46.2 20.9 46.2 20.2 46.9Z" fill="#DE323C"/>
<path d="M25.1 41.9C24.4 42.6 24.4 43.8 25.1 44.5C25.8 45.2 27 45.2 27.7 44.5C28.4 43.8 28.4 42.6 27.7 41.9C27 41.2 25.8 41.2 25.1 41.9Z" fill="#DE323C"/>
<path d="M30 37C29.3 37.7 29.3 38.9 30 39.6C30.7 40.3 31.9 40.3 32.6 39.6C33.3 38.9 33.3 37.7 32.6 37C31.9 36.3 30.8 36.3 30 37Z" fill="#DE323C"/>
<path d="M20.5 37.2C19.9 37.8 19.9 38.7 20.5 39.3C21.1 39.9 22 39.9 22.6 39.3C23.2 38.7 23.2 37.8 22.6 37.2C22 36.7 21 36.7 20.5 37.2Z" fill="#DE323C"/>
<path d="M15.5 42.1C14.9 42.7 14.9 43.6 15.5 44.2C16.1 44.8 17 44.8 17.6 44.2C18.2 43.6 18.2 42.7 17.6 42.1C16.9 41.6 16 41.6 15.5 42.1Z" fill="#DE323C"/>
<path d="M15.9 32.6C15.3 33.2 15.3 34.1 15.9 34.7C16.5 35.3 17.3999 35.3 17.9999 34.7C18.5999 34.1 18.5999 33.2 17.9999 32.6C17.3999 32 16.4 32 15.9 32.6Z" fill="#DE323C"/>
<path d="M11 37.4C10.5 37.9 10.5 38.7 11 39.2C11.5 39.7 12.3 39.7 12.8 39.2C13.3 38.7 13.3 37.9 12.8 37.4C12.3 36.9 11.5 36.9 11 37.4Z" fill="#DE323C"/>
<path d="M29.7 46.6C28.8 47.5 28.8 48.9 29.7 49.8C30.6 50.7 32 50.7 32.9 49.8C33.8 48.9 33.8 47.5 32.9 46.6C32 45.8 30.6 45.8 29.7 46.6Z" fill="#DE323C"/>
<path d="M34.6 41.7C33.7 42.6 33.7 44 34.6 44.9C35.5 45.8 36.9001 45.8 37.8001 44.9C38.7001 44 38.7001 42.6 37.8001 41.7C36.9001 40.8 35.5 40.8 34.6 41.7Z" fill="#DE323C"/>
<path d="M39.6 36.8C38.7 37.7 38.7 39.1 39.6 40C40.5 40.9 41.9001 40.9 42.8001 40C43.7001 39.1 43.7001 37.7 42.8001 36.8C41.9001 35.9 40.5 35.9 39.6 36.8Z" fill="#DE323C"/>
</g>
<defs>
<clipPath id="clip0_2007_2">
<rect width="256" height="45" fill="white" transform="translate(11 16)"/>
</clipPath>
</defs>
</svg>
