<svg width="277" height="77" viewBox="0 0 277 77" fill="none" xmlns="http://www.w3.org/2000/svg">
<path d="M101.04 32.95V21.03H105.57V40.02C105.57 45.56 101.4 49.66 95.7501 49.66C90.1001 49.66 85.9301 45.57 85.9301 39.98C85.9301 34.39 89.9201 30.27 95.1301 30.27C97.5201 30.27 99.7701 31.25 101.04 32.95ZM95.7901 34.69C92.7501 34.69 90.5401 36.94 90.5401 39.98C90.5401 43.02 92.7501 45.27 95.7901 45.27C98.8301 45.27 100.97 43.02 100.97 39.98C100.97 36.94 98.8001 34.69 95.7901 34.69Z" fill="#212529"/>
<path d="M117.67 49.66C112.05 49.66 108.03 45.64 108.03 39.98C108.03 34.32 112.16 30.27 117.89 30.27C123.62 30.27 127.17 34.04 127.17 39.15C127.17 39.91 127.1 40.71 126.92 41.54H113.48C112.97 41.54 112.72 41.79 112.72 42.23C112.72 43.97 114.93 45.71 117.87 45.71C119.79 45.71 121.82 45.13 122.62 43.5H127.08C125.7 47.81 122.04 49.66 117.69 49.66H117.67ZM112.6 38.06H122.17C122.53 38.06 122.75 37.84 122.75 37.48C122.75 35.81 120.87 34.11 117.97 34.11C115.07 34.11 113.08 35.6 112.61 38.06H112.6Z" fill="#212529"/>
<path d="M138.65 49.66C133.03 49.66 129.01 45.64 129.01 39.98C129.01 34.32 133.14 30.27 138.87 30.27C144.6 30.27 148.15 34.04 148.15 39.15C148.15 39.91 148.08 40.71 147.9 41.54H134.46C133.95 41.54 133.7 41.79 133.7 42.23C133.7 43.97 135.91 45.71 138.85 45.71C140.77 45.71 142.8 45.13 143.6 43.5H148.06C146.68 47.81 143.02 49.66 138.67 49.66H138.65ZM133.58 38.06H143.15C143.51 38.06 143.73 37.84 143.73 37.48C143.73 35.81 141.85 34.11 138.95 34.11C136.05 34.11 134.06 35.6 133.59 38.06H133.58Z" fill="#212529"/>
<path d="M155.29 47.01V57.26H150.76V39.97C150.76 34.39 155 30.26 160.62 30.26C166.24 30.26 170.44 34.35 170.44 39.97C170.44 45.59 166.35 49.65 161.13 49.65C158.85 49.65 156.53 48.67 155.3 47L155.29 47.01ZM160.61 45.27C163.55 45.27 165.83 42.99 165.83 39.98C165.83 36.97 163.55 34.69 160.61 34.69C157.67 34.69 155.36 36.97 155.36 39.98C155.36 42.99 157.64 45.27 160.61 45.27Z" fill="#212529"/>
<path d="M181.85 49.66C176.31 49.66 172.25 45.57 172.25 39.98C172.25 34.39 176.31 30.27 181.85 30.27C186.6 30.27 190.29 33.31 191.09 37.73H186.38C185.73 35.92 183.95 34.69 181.81 34.69C178.95 34.69 176.85 36.94 176.85 39.98C176.85 43.02 178.95 45.27 181.81 45.27C183.91 45.27 185.72 44.04 186.38 42.23H191.09C190.26 46.65 186.6 49.66 181.85 49.66Z" fill="#212529"/>
<path d="M198.55 21.03V49.29H194.02V21.03H198.55Z" fill="#212529"/>
<path d="M201.78 39.98C201.78 34.29 205.91 30.27 211.56 30.27C217.21 30.27 221.34 34.29 221.34 39.98C221.34 45.67 217.25 49.66 211.56 49.66C205.87 49.66 201.78 45.67 201.78 39.98ZM216.74 39.98C216.74 36.9 214.64 34.69 211.56 34.69C208.48 34.69 206.38 36.9 206.38 39.98C206.38 43.06 208.52 45.27 211.56 45.27C214.6 45.27 216.74 43.02 216.74 39.98Z" fill="#212529"/>
<path d="M232.69 49.66C227.65 49.66 223.96 46.44 223.96 40.82V30.64H228.49V40.82C228.49 43.72 230.27 45.28 232.69 45.28C235.11 45.28 236.89 43.72 236.89 40.82V30.64H241.42V40.82C241.42 46.44 237.72 49.66 232.69 49.66Z" fill="#212529"/>
<path d="M259.18 32.95V21.03H263.71V40.02C263.71 45.56 259.54 49.66 253.89 49.66C248.24 49.66 244.07 45.57 244.07 39.98C244.07 34.39 248.06 30.27 253.27 30.27C255.66 30.27 257.91 31.25 259.18 32.95ZM253.92 34.69C250.88 34.69 248.67 36.94 248.67 39.98C248.67 43.02 250.88 45.27 253.92 45.27C256.96 45.27 259.1 43.02 259.1 39.98C259.1 36.94 256.93 34.69 253.92 34.69Z" fill="#212529"/>
<path d="M56.6399 15.16H49.84L61.11 34.67C61.41 35.2 61.6599 35.76 61.7799 36.36C62.6099 40.3 59.63 43.76 55.84 43.76H42.47C42.13 43.76 41.81 43.94 41.64 44.24L39.35 48.21C38.98 48.85 39.44 49.64 40.18 49.64H55.8699C62.4699 49.64 67.82 44.29 67.81 37.69C67.81 35.59 67.2599 33.53 66.2099 31.71L56.6399 15.15V15.16Z" fill="#FF2800"/>
<path d="M14.24 37.69L17.64 43.58L28.9 24.07C29.2 23.54 29.57 23.05 30.03 22.65C33.02 19.96 37.51 20.81 39.41 24.09L46.1 35.67C46.27 35.97 46.59 36.15 46.93 36.15H51.52C52.26 36.15 52.72 35.35 52.35 34.72L44.51 21.14C41.21 15.43 33.91 13.47 28.19 16.77H28.18C26.37 17.82 24.86 19.33 23.82 21.15L14.24 37.69Z" fill="#FF2800"/>
<path d="M54.96 63.15L58.36 57.26H35.83C35.22 57.26 34.61 57.19 34.03 57C30.21 55.75 28.69 51.44 30.59 48.16L37.28 36.58C37.45 36.28 37.45 35.92 37.28 35.62L34.99 31.65C34.62 31.01 33.7 31.01 33.33 31.65L25.49 45.23C22.19 50.94 24.15 58.25 29.86 61.55H29.87C31.68 62.6 33.74 63.15 35.84 63.15H54.97H54.96Z" fill="#FF2800"/>
</svg>
