<svg width="277" height="77" viewBox="0 0 277 77" fill="none" xmlns="http://www.w3.org/2000/svg">
<path d="M132.714 29.1309C131.392 32.1368 130.652 35.4576 130.652 38.9516C130.652 42.4457 131.392 45.7665 132.714 48.7724C135.184 46.2447 136.714 42.7756 136.714 38.9516C136.714 35.1277 135.186 31.6586 132.714 29.1309ZM88.7952 35.4826H62.1579V15.4113H55.4904V62.4904H62.1579V42.3274H88.7969V62.4804H95.4546V15.4113H88.7969V35.4826H88.7952ZM221.728 27.1248C220.521 20.4632 214.745 15.4113 207.798 15.4113L189.411 15.4163C185.353 15.4163 182.051 18.7504 182.051 22.8493V62.4904H188.712V44.0203L207.8 44.0136C216.608 44.1319 223.414 35.6075 221.729 27.1248H221.728ZM207.765 37.2854L188.708 37.3171V22.656C188.708 22.3827 188.928 22.1611 189.198 22.1611L207.764 22.1561C217.643 22.4061 217.646 37.0338 207.764 37.2838L207.765 37.2854ZM154.713 14.6598C149.823 14.6598 145.272 16.1444 141.471 18.6837C143.167 20.2733 144.663 22.0778 145.919 24.0523C148.493 22.4977 151.502 21.5996 154.713 21.5996C164.19 21.5996 171.899 29.3842 171.899 38.95C171.899 48.5158 164.19 56.3004 154.713 56.3004C151.5 56.3004 148.493 55.4039 145.919 53.8477C144.663 55.8221 143.167 57.6267 141.471 59.2162C145.272 61.7572 149.823 63.2402 154.713 63.2402C167.981 63.2402 178.775 52.3431 178.775 38.9483C178.775 25.5536 167.981 14.6598 154.713 14.6598ZM122.859 14.6598C109.592 14.6598 98.7983 25.5569 98.7983 38.9516C98.7983 52.3464 109.592 63.2435 122.859 63.2435C136.127 63.2435 146.92 52.3464 146.92 38.9516C146.92 25.5569 136.127 14.6598 122.859 14.6598ZM122.859 56.302C113.383 56.302 105.674 48.5174 105.674 38.9516C105.674 29.3859 113.383 21.6013 122.859 21.6013C132.336 21.6013 140.045 29.3859 140.045 38.9516C140.045 48.5174 132.336 56.302 122.859 56.302Z" fill="#3553E3"/>
</svg>
