<svg width="256" height="256" viewBox="0 0 256 256" fill="none" xmlns="http://www.w3.org/2000/svg">
<g clip-path="url(#clip0_3601_6)">
<path d="M173.688 164.072C167.18 167.34 162.876 172.768 160.882 178.881L148.496 162.123C145.819 158.486 146.554 153.374 150.176 150.687L151.33 149.843L74.3896 45.7607C61.8461 55.1414 59.222 72.954 68.5115 85.5493L128.605 166.813C132.226 164.125 137.317 164.863 139.994 168.499L164.031 201.068C172.061 211.924 187.334 215.297 198.565 207.761C212.053 198.749 213.943 179.25 201.399 167.867C193.894 161.069 182.715 159.593 173.688 164.072ZM193.894 199.171C187.071 204.283 177.414 202.86 172.323 196.009C167.233 189.158 168.702 179.461 175.525 174.349C182.348 169.237 192.005 170.66 197.096 177.511C202.186 184.362 200.717 194.059 193.894 199.171Z" fill="#1867C0"/>
<path d="M55.4958 168.025C43.0047 179.461 44.9991 198.96 58.5398 207.919C69.5088 215.139 85.3063 211.661 93.0738 201.015L116.954 168.341C119.63 164.705 124.721 163.915 128.343 166.602L188.016 85.0225C197.253 72.3745 194.524 54.5618 181.928 45.2866L105.512 149.686L106.667 150.529C110.288 153.216 111.076 158.328 108.399 161.912L96.0654 178.776C94.0185 172.663 89.7149 167.287 83.2069 164.073C74.1273 159.593 62.9484 161.174 55.4958 168.025ZM59.8519 177.617C64.8903 170.713 74.5472 169.237 81.4225 174.296C88.2978 179.356 89.7674 189.052 84.729 195.956C79.6906 202.86 70.0336 204.335 63.1583 199.276C56.283 194.217 54.8135 184.52 59.8519 177.617Z" fill="#AEDDFF"/>
<path d="M128.395 147.261C131.236 147.261 133.538 144.949 133.538 142.097C133.538 139.244 131.236 136.932 128.395 136.932C125.554 136.932 123.252 139.244 123.252 142.097C123.252 144.949 125.554 147.261 128.395 147.261Z" fill="#1697F6"/>
</g>
<defs>
<clipPath id="clip0_3601_6">
<rect width="163" height="167" fill="white" transform="translate(47 45)"/>
</clipPath>
</defs>
</svg>
